<svg height="512" viewBox="0 0 64 64" width="512" xmlns="http://www.w3.org/2000/svg"><g id="Accounting"><path d="m57 61h-46v-46l12-12h34z" fill="#ffeb99"/><path d="m29.5 61h27.5v-29c0 13.919-11.662 25.6-27.5 29z" fill="#ffde55"/><path d="m23 14v-10.93l-11.97 11.93h10.97a1 1 0 0 0 1-1z" fill="#7ed63e"/><path d="m53 49h1 6 1v-26h-8z" fill="#006df0"/><path d="m53 19h8v4h-8z" fill="#d1d3d4"/><path d="m57 13a4 4 0 0 0 -4 4v2h8v-2a4 4 0 0 0 -4-4z" fill="#006df0"/><path d="m54 53h1 4 1v-4h-6z" fill="#a7a9ac"/><path d="m57 61 2-8h-4z" fill="#ff9811"/><rect fill="#006df0" height="40" rx="4" width="32" x="3" y="21"/><path d="m7 25h24v6h-24z" fill="#f1f2f2"/><path d="m9 37h4v4h-4z" fill="#ffcd00"/><path d="m9 45h4v4h-4z" fill="#ffcd00"/><path d="m9 53h4v4h-4z" fill="#ffcd00"/><path d="m17 37h4v4h-4z" fill="#ffcd00"/><path d="m17 45h4v4h-4z" fill="#ffcd00"/><path d="m17 53h4v4h-4z" fill="#ffcd00"/><path d="m25 37h4v4h-4z" fill="#ffcd00"/><path d="m25 45h4v4h-4z" fill="#ffcd00"/><path d="m39 32h6v-6h-10v6z" fill="#ff5023"/><path d="m35 38h4v6h-4z" fill="#ff7956"/><path d="m35 50h4v6h-4z" fill="#ff7956"/><path d="m39 32h6v6h-6z" fill="#ff7956"/><path d="m35 32h4v6h-4z" fill="#ff7956"/><path d="m35 44h4v6h-4z" fill="#ff7956"/><path d="m39 38h6v6h-6z" fill="#ff7956"/><path d="m39 44h6v6h-6z" fill="#ff7956"/><path d="m39 50h6v6h-6z" fill="#ff7956"/><path d="m15.724 61h15.276a4 4 0 0 0 4-4v-19c0 10.878-8.123 20.05-19.276 23z" fill="#005ece"/><path d="m25 53h4v4h-4z" fill="#ffcd00"/><g fill="#231f20"><path d="m57 2h-33.93a1.007 1.007 0 0 0 -.71.29l-12.07 12.03a1.033 1.033 0 0 0 -.29.71v4.97h-3a5 5 0 0 0 -5 5v32a5 5 0 0 0 5 5h46a1 1 0 0 0 0-2h-18.03a4.924 4.924 0 0 0 1.03-3h9a1 1 0 0 0 1-1v-30a1 1 0 0 0 -1-1h-9a5 5 0 0 0 -5-5h-19v-4h10a2.006 2.006 0 0 0 2-2v-10h32v5a1 1 0 0 0 2 0v-6a1 1 0 0 0 -1-1zm-13 53h-4v-4h4zm0-6h-4v-4h4zm0-6h-4v-4h4zm0-6h-4v-4h4zm-8-10h8v4h-8zm0 6h2v4h-2zm0 6h2v4h-2zm0 6h2v4h-2zm0 6h2v4h-2zm-5-29a3.009 3.009 0 0 1 3 3v32a3.009 3.009 0 0 1 -3 3h-24a3.009 3.009 0 0 1 -3-3v-32a3.009 3.009 0 0 1 3-3zm-9-8h-8.55l8.55-8.52z"/><path d="m47 10h-17a1 1 0 0 0 0 2h17a1 1 0 0 0 0-2z"/><path d="m47 14h-17a1 1 0 0 0 0 2h17a1 1 0 0 0 0-2z"/><path d="m57 12a5 5 0 0 0 -5 5v5a3.009 3.009 0 0 0 -3 3v8a1 1 0 0 0 2 0v-8a1 1 0 0 1 1-1v25a1 1 0 0 0 1 1v3a1 1 0 0 0 1 1h.22l1.81 7.24a1 1 0 0 0 1.94 0l1.81-7.24h.22a1 1 0 0 0 1-1v-3a1 1 0 0 0 1-1v-32a5 5 0 0 0 -5-5zm0 44.88-.72-2.88h1.44zm2-4.88h-4v-2h4zm1-4h-6v-24h6zm0-26h-6v-2h6zm0-4h-6v-1a3 3 0 0 1 6 0z"/><path d="m32 31v-6a1 1 0 0 0 -1-1h-24a1 1 0 0 0 -1 1v6a1 1 0 0 0 1 1h24a1 1 0 0 0 1-1zm-2-1h-22v-4h22z"/><path d="m13 36h-4a1 1 0 0 0 -1 1v4a1 1 0 0 0 1 1h4a1 1 0 0 0 1-1v-4a1 1 0 0 0 -1-1zm-1 4h-2v-2h2z"/><path d="m13 44h-4a1 1 0 0 0 -1 1v4a1 1 0 0 0 1 1h4a1 1 0 0 0 1-1v-4a1 1 0 0 0 -1-1zm-1 4h-2v-2h2z"/><path d="m13 52h-4a1 1 0 0 0 -1 1v4a1 1 0 0 0 1 1h4a1 1 0 0 0 1-1v-4a1 1 0 0 0 -1-1zm-1 4h-2v-2h2z"/><path d="m21 36h-4a1 1 0 0 0 -1 1v4a1 1 0 0 0 1 1h4a1 1 0 0 0 1-1v-4a1 1 0 0 0 -1-1zm-1 4h-2v-2h2z"/><path d="m21 44h-4a1 1 0 0 0 -1 1v4a1 1 0 0 0 1 1h4a1 1 0 0 0 1-1v-4a1 1 0 0 0 -1-1zm-1 4h-2v-2h2z"/><path d="m21 52h-4a1 1 0 0 0 -1 1v4a1 1 0 0 0 1 1h4a1 1 0 0 0 1-1v-4a1 1 0 0 0 -1-1zm-1 4h-2v-2h2z"/><path d="m29 36h-4a1 1 0 0 0 -1 1v4a1 1 0 0 0 1 1h4a1 1 0 0 0 1-1v-4a1 1 0 0 0 -1-1zm-1 4h-2v-2h2z"/><path d="m29 44h-4a1 1 0 0 0 -1 1v4a1 1 0 0 0 1 1h4a1 1 0 0 0 1-1v-4a1 1 0 0 0 -1-1zm-1 4h-2v-2h2z"/><path d="m29 52h-4a1 1 0 0 0 -1 1v4a1 1 0 0 0 1 1h4a1 1 0 0 0 1-1v-4a1 1 0 0 0 -1-1zm-1 4h-2v-2h2z"/></g></g></svg>